<?xml version="1.0" standalone="no"?>
<svg version="1.0" xmlns="http://www.w3.org/2000/svg"
 width="174" height="116" viewBox="251 84 174 116"
 preserveAspectRatio="xMidYMid meet">
<defs>
  <linearGradient id="mainGrad" x1="2500" y1="0" x2="4250" y2="0" gradientUnits="userSpaceOnUse">
    <stop offset="0%" stop-color="#9333EA"/>
    <stop offset="100%" stop-color="#4F46E5"/>
  </linearGradient>
  <linearGradient id="shadowGrad" x1="2500" y1="0" x2="4250" y2="0" gradientUnits="userSpaceOnUse">
    <stop offset="0%" stop-color="#6D28D9"/>
    <stop offset="100%" stop-color="#3730A3"/>
  </linearGradient>
</defs>

<g transform="translate(5.000000,374.000000) scale(0.100000,-0.100000)"
fill="url(#shadowGrad)" stroke="none">
<path d="M3425 2802 c-47 -17 -83 -43 -111 -83 -29 -42 -29 -43 -32 -208 -2
-91 -7 -169 -11 -174 -6 -6 -322 314 -374 380 -38 48 -106 83 -161 83 -57 0
-110 -26 -127 -63 -5 -12 -17 -34 -25 -49 -12 -23 -16 -102 -20 -443 -4 -229
-3 -436 1 -461 l6 -44 165 0 164 0 0 224 c0 159 3 227 11 232 7 4 38 -21 77
-62 179 -188 350 -358 377 -372 26 -15 69 -17 325 -17 292 0 295 0 345 24 112
56 169 144 169 261 0 84 -28 148 -95 216 l-51 51 31 35 c125 143 78 359 -97
445 l-57 28 -245 2 c-135 1 -254 -1 -265 -5z m-647 -96 c15 -8 52 -40 82 -73
30 -32 133 -141 230 -243 97 -102 196 -206 219 -232 24 -27 47 -48 52 -48 5 0
9 119 9 265 0 292 3 312 58 334 16 7 45 11 63 9 l34 -3 3 -405 c2 -388 1 -406
-18 -437 -21 -36 -55 -49 -97 -39 -27 7 -127 105 -375 368 -56 59 -106 105
-111 101 -6 -3 -7 -2 -4 4 3 5 -21 36 -53 68 l-60 59 -2 -299 -3 -300 -53 -8
c-30 -5 -64 -6 -78 -3 l-24 6 0 406 c0 340 2 410 15 434 26 49 64 62 113 36z
m1199 -19 c58 -40 88 -98 88 -174 0 -52 -4 -68 -30 -104 -54 -76 -77 -84 -255
-84 l-155 0 -3 185 c-1 101 0 191 3 198 4 11 34 13 158 11 149 -4 155 -5 194
-32z m-151 -457 c170 0 185 -5 248 -83 58 -72 46 -198 -26 -264 -48 -45 -87
-53 -255 -53 -87 0 -164 4 -172 9 -8 6 -11 16 -6 31 4 13 7 93 7 179 -1 180 1
195 31 187 12 -3 90 -6 173 -6z"/>
</g>

<g transform="translate(0.000000,369.000000) scale(0.100000,-0.100000)"
fill="url(#mainGrad)" stroke="none">
<path d="M3425 2802 c-47 -17 -83 -43 -111 -83 -29 -42 -29 -43 -32 -208 -2
-91 -7 -169 -11 -174 -6 -6 -322 314 -374 380 -38 48 -106 83 -161 83 -57 0
-110 -26 -127 -63 -5 -12 -17 -34 -25 -49 -12 -23 -16 -102 -20 -443 -4 -229
-3 -436 1 -461 l6 -44 165 0 164 0 0 224 c0 159 3 227 11 232 7 4 38 -21 77
-62 179 -188 350 -358 377 -372 26 -15 69 -17 325 -17 292 0 295 0 345 24 112
56 169 144 169 261 0 84 -28 148 -95 216 l-51 51 31 35 c125 143 78 359 -97
445 l-57 28 -245 2 c-135 1 -254 -1 -265 -5z m-647 -96 c15 -8 52 -40 82 -73
30 -32 133 -141 230 -243 97 -102 196 -206 219 -232 24 -27 47 -48 52 -48 5 0
9 119 9 265 0 292 3 312 58 334 16 7 45 11 63 9 l34 -3 3 -405 c2 -388 1 -406
-18 -437 -21 -36 -55 -49 -97 -39 -27 7 -127 105 -375 368 -56 59 -106 105
-111 101 -6 -3 -7 -2 -4 4 3 5 -21 36 -53 68 l-60 59 -2 -299 -3 -300 -53 -8
c-30 -5 -64 -6 -78 -3 l-24 6 0 406 c0 340 2 410 15 434 26 49 64 62 113 36z
m1199 -19 c58 -40 88 -98 88 -174 0 -52 -4 -68 -30 -104 -54 -76 -77 -84 -255
-84 l-155 0 -3 185 c-1 101 0 191 3 198 4 11 34 13 158 11 149 -4 155 -5 194
-32z m-151 -457 c170 0 185 -5 248 -83 58 -72 46 -198 -26 -264 -48 -45 -87
-53 -255 -53 -87 0 -164 4 -172 9 -8 6 -11 16 -6 31 4 13 7 93 7 179 -1 180 1
195 31 187 12 -3 90 -6 173 -6z"/>
</g>
</svg>
